<?xml version="1.0" encoding="UTF-8" standalone="no"?>
<svg
   viewBox="0 0 2048 2048"
   version="1.1"
   id="svg12"
   sodipodi:docname="logo.svg"
   inkscape:version="1.2.2 (732a01da63, 2022-12-09)"
   xmlns:inkscape="http://www.inkscape.org/namespaces/inkscape"
   xmlns:sodipodi="http://sodipodi.sourceforge.net/DTD/sodipodi-0.dtd"
   xmlns="http://www.w3.org/2000/svg"
   xmlns:svg="http://www.w3.org/2000/svg">
  <defs
     id="defs16" />
  <sodipodi:namedview
     id="namedview14"
     pagecolor="#ffffff"
     bordercolor="#000000"
     borderopacity="0.25"
     inkscape:showpageshadow="2"
     inkscape:pageopacity="0.0"
     inkscape:pagecheckerboard="0"
     inkscape:deskcolor="#d1d1d1"
     showgrid="false"
     inkscape:zoom="0.32593203"
     inkscape:cx="1026.2876"
     inkscape:cy="1024.7535"
     inkscape:window-width="1920"
     inkscape:window-height="1121"
     inkscape:window-x="-7"
     inkscape:window-y="-7"
     inkscape:window-maximized="1"
     inkscape:current-layer="svg12" />
  <path
     d="M 256,0 H 1792 V 2048 H 256 Z M 1664,1920 V 128 H 384 V 1920 Z M 1536,512 V 640 H 1024 V 512 Z m 0,512 v 128 h -512 v -128 z m 0,512 v 128 H 1024 V 1536 Z M 941,429 704,666 531,493 l 90,-90 83,83 147,-147 z m -208.63246,637.7931 -0.75442,-5.3818 -7.32129,-4.2532 4.09252,8.18 3.22876,-5.9756 -6.40621,-2.7982 z M 941,1453 704,1690 531,1517 l 90,-90 83,83 147,-147 z"
     id="path10"
     sodipodi:nodetypes="cccccccccccccccccccccccccccccccccccccccccccccc" />
  <g
     id="g1046"
     transform="rotate(45,-493.21518,2632.7258)">
    <rect
       style="fill:#000000;fill-opacity:1;stroke:#000000;stroke-width:17.3057"
       id="rect1038"
       width="277.72305"
       height="99.771843"
       x="-866.64954"
       y="622.03333" />
    <rect
       style="fill:#000000;fill-opacity:1;stroke:#000000;stroke-width:17.3057"
       id="rect1042"
       width="277.72305"
       height="99.771843"
       x="534.34955"
       y="674.83398"
       transform="rotate(90)" />
  </g>
</svg>
